<svg version="1.0" xmlns="http://www.w3.org/2000/svg" viewBox="0 0 1024 1024"><path fill="#72a7cf" d="M 340.26528,10.374948 C 153.27248,10.374948 0,163.64738 0,350.6401 c 0,186.99273 153.27248,340.2936 340.26528,340.2936 75.64557,0 145.75958,-25.11343 202.46414,-67.36953 l 61.02744,61.02742 c -1.23827,22.26286 7.04317,44.00298 22.77946,59.79975 l 246.3565,246.35641 c 75.30286,75.26845 203.50378,-52.95377 128.21728,-128.24242 L 754.75366,616.17262 C 738.95535,600.42135 717.20471,592.13057 694.93019,593.36947 L 629.96381,528.40311 C 661.99954,476.56182 680.55852,415.65291 680.55852,350.63916 680.55852,163.64643 527.2576,10.374 340.2648,10.374 Z m 0,157.083382 c 102.10423,0 183.21028,81.08231 183.21028,183.18177 0,102.1042 -81.10605,183.21022 -183.21028,183.21022 -102.10423,0 -183.18185,-81.10602 -183.18185,-183.21022 0,-102.1042 81.08236,-183.18177 183.18185,-183.18177 z" /></svg>
