<?xml version="1.0" encoding="UTF-8"?>
<svg xmlns="http://www.w3.org/2000/svg" viewBox="0 0 93.08 92.69">
  <defs>
    <style>
      .uuid-9d18448e-28bd-4145-800b-b1c26272cd2d {
        fill: #0f5620;
      }

      .uuid-0d7f2957-b1dd-46b9-922b-0d234d121623, .uuid-7bb1d03b-4b90-4da0-a698-6b8020e2ba68 {
        fill: #fff;
      }

      .uuid-4cfcd761-370c-4236-9cfe-9cc259c939f6 {
        fill: #ffd34a;
      }

      .uuid-7bb1d03b-4b90-4da0-a698-6b8020e2ba68 {
        stroke: #000;
      }

      .uuid-7bb1d03b-4b90-4da0-a698-6b8020e2ba68, .uuid-fa2392f4-209e-4ea5-a1a9-edecf594c22b, .uuid-5e41514a-8cfb-4208-b27f-800a6b4f3cbf, .uuid-2a488c82-09f3-446a-bf25-b63fbf564f64 {
        stroke-miterlimit: 10;
      }

      .uuid-7934e746-aa5b-4bc2-959c-4e318a00d592 {
        fill: #3fa9f5;
      }

      .uuid-5398691d-6d5c-4f13-bc51-cc4e2eeddc29 {
        fill: none;
      }

      .uuid-fa2392f4-209e-4ea5-a1a9-edecf594c22b {
        stroke: #006837;
      }

      .uuid-fa2392f4-209e-4ea5-a1a9-edecf594c22b, .uuid-5e41514a-8cfb-4208-b27f-800a6b4f3cbf {
        fill: #93ff75;
        stroke-width: .25px;
      }

      .uuid-0f5538b4-ac77-4895-a01b-a64ef5ab5fc2 {
        fill: #ff9a2c;
      }

      .uuid-5e41514a-8cfb-4208-b27f-800a6b4f3cbf {
        stroke: #fff;
      }

      .uuid-2a488c82-09f3-446a-bf25-b63fbf564f64 {
        fill: #32cd32;
        stroke: #32cd32;
        stroke-width: .5px;
      }
    </style>
  </defs>
  <g id="uuid-3af19f2a-fa6c-4d77-a7cf-78ee9737d08e" data-name="Contours">
    <circle class="uuid-7bb1d03b-4b90-4da0-a698-6b8020e2ba68" cx="44.86" cy="47.83" r="44.36"/>
    <g>
      <g>
        <path class="uuid-4cfcd761-370c-4236-9cfe-9cc259c939f6" d="M36.84,43.34c-.52,1.27-2.52,4.08-3.02,5.74-.62,2.09-1.98,3.94-2.81,7.37-.62,2.54.3,6.55.91,9.17h0c2.75,2.12,7.74-.45,10.7-.8,3.18-.38,10.18-6.31,12.64-7.49"/>
        <path class="uuid-0f5538b4-ac77-4895-a01b-a64ef5ab5fc2" d="M36.2,42.96c-.68,1.56-1.72,2.94-2.48,4.46s-1.25,3.1-1.93,4.61c-.78,1.74-1.53,3.59-1.69,5.51-.17,2.03.21,4.11.62,6.09.15.7.19,1.85.62,2.44.39.54,1.36.85,1.98.98,1.74.37,3.57-.03,5.26-.47,1.59-.42,3.2-.75,4.79-1.15,1.35-.34,2.62-1.1,3.79-1.82,2.88-1.76,5.47-4.14,8.5-5.64.86-.43.11-1.72-.76-1.3-2.29,1.14-4.32,2.88-6.44,4.31-1.25.85-2.53,1.68-3.88,2.36-1.11.56-2.19.7-3.38.98-1.63.38-3.21.95-4.87,1.23-.85.14-1.76.23-2.61.05-.31-.06-.83-.16-1.04-.39-.19-.2-.21-.6-.28-.92-.42-1.87-.81-3.78-.83-5.71-.02-2.03.7-3.96,1.52-5.79.66-1.47,1.17-3.03,1.86-4.48.76-1.58,1.85-2.99,2.55-4.6.38-.88-.91-1.64-1.3-.76h0Z"/>
      </g>
      <g>
        <path class="uuid-9d18448e-28bd-4145-800b-b1c26272cd2d" d="M58.2,20.85c-9.74,1.64-35.97,11.61-43.63,16.72,4.05,1.72,17.71,6.32,21.89,8.03"/>
        <path class="uuid-9d18448e-28bd-4145-800b-b1c26272cd2d" d="M58,20.13c-5.75.99-11.38,3-16.87,4.94-6.6,2.34-13.14,4.91-19.48,7.87-2.55,1.19-5.11,2.42-7.46,3.98-.58.38-.41,1.12.18,1.37,7.16,3.02,14.69,5.11,21.89,8.03.89.36,1.28-1.09.4-1.45-7.2-2.92-14.73-5.01-21.89-8.03l.18,1.37c4.71-3.12,10.15-5.29,15.35-7.41,6.46-2.64,13.02-5.06,19.7-7.1,2.76-.84,5.55-1.65,8.4-2.13.95-.16.55-1.61-.4-1.45h0Z"/>
      </g>
      <g>
        <path class="uuid-9d18448e-28bd-4145-800b-b1c26272cd2d" d="M73.75,28.98c.08,9.87-5.18,37.44-8.89,45.87-2.39-3.69-9.3-16.34-11.71-20.17"/>
        <path class="uuid-9d18448e-28bd-4145-800b-b1c26272cd2d" d="M73,28.98c.03,5.77-.96,11.6-1.91,17.27-1.14,6.79-2.51,13.57-4.29,20.23-.72,2.69-1.47,5.43-2.58,7.99h1.3c-4.22-6.53-7.58-13.58-11.71-20.17-.51-.82-1.81-.06-1.3.76,4.13,6.59,7.49,13.64,11.71,20.17.27.42,1.06.55,1.3,0,2.29-5.25,3.51-11.04,4.72-16.62,1.49-6.84,2.74-13.75,3.59-20.71.37-2.96.69-5.94.68-8.93,0-.96-1.5-.97-1.5,0h0Z"/>
      </g>
    </g>
  </g>
  <g id="uuid-d5a8441b-78e8-4a79-99e1-44e15b586605" data-name="Calque 3">
    <g id="uuid-d8d21143-3cc8-4a66-b790-d4dc4c12e98e" data-name="Flamme1">
      <ellipse class="uuid-7934e746-aa5b-4bc2-959c-4e318a00d592" cx="46.68" cy="47.83" rx="15.57" ry="6.34" transform="translate(-18.89 60.77) rotate(-56.87)"/>
      <ellipse class="uuid-0d7f2957-b1dd-46b9-922b-0d234d121623" cx="45.92" cy="48.84" rx="12.11" ry="5.62" transform="translate(-20.08 60.6) rotate(-56.87)"/>
    </g>
    <path class="uuid-2a488c82-09f3-446a-bf25-b63fbf564f64" d="M67.88,47.34c-5.67,7.2-19.44,12.69-26.64,7.02s-5.11-20.34.56-27.54,21.66-13.37,28.86-7.7,2.89,21.02-2.78,28.23Z"/>
  </g>
  <g id="uuid-504cd246-c2b4-42a6-af64-001b1acd1fe7" data-name="Chapeau">
    <g id="uuid-389cbe5c-7e1b-4e06-8eaa-e4b5953cf96a" data-name="Coiffe">
      <path class="uuid-fa2392f4-209e-4ea5-a1a9-edecf594c22b" d="M51.35,19.47c30.2-14.24,22.59,16.34,22.59,16.34"/>
      <g>
        <path class="uuid-5e41514a-8cfb-4208-b27f-800a6b4f3cbf" d="M63.2,16.91l-8.91,2.97c-.18.06-.22.3-.07.41l7.37,5.48c.14.1.34.02.37-.15l1.54-8.44c.03-.17-.13-.32-.3-.26Z"/>
        <path class="uuid-5e41514a-8cfb-4208-b27f-800a6b4f3cbf" d="M72.18,22.57l-7.4-5.5c-.14-.11-.34-.02-.37.15l-1.26,8.62c-.03.17.14.31.31.25l8.65-3.12c.18-.06.21-.3.06-.41Z"/>
        <path class="uuid-5e41514a-8cfb-4208-b27f-800a6b4f3cbf" d="M73.1,24l-8.91,2.97c-.18.06-.22.3-.07.41l7.37,5.48c.14.1.34.02.37-.15l1.54-8.44c.03-.17-.13-.32-.3-.26Z"/>
      </g>
    </g>
    <g>
      <ellipse class="uuid-5398691d-6d5c-4f13-bc51-cc4e2eeddc29" cx="48.55" cy="43.07" rx="44.54" ry="43.07"/>
      <path d="M17.29,67.51c1.12-.87,2.48-1.92,3.53-2.62l-.03-.04c-1.19.38-2.48.74-3.94,1.1l-5.12,1.27-.59-.85,3.03-4.16c.9-1.23,1.74-2.32,2.57-3.25l-.02-.03c-1.06.69-2.51,1.6-3.82,2.39l-3.75,2.25-.74-1.07,8.8-5.18.98,1.43-3.03,4.27c-.78,1.07-1.5,2-2.22,2.82l.03.04c1-.37,2.13-.69,3.45-1.03l5.12-1.25.98,1.43-8.01,6.32-.75-1.09,3.53-2.76Z"/>
      <path d="M25.55,75.78c-1.68,2.12-3.93,1.84-5.36.7-1.6-1.27-1.94-3.39-.51-5.2,1.52-1.92,3.71-2.01,5.35-.71,1.7,1.35,1.91,3.46.52,5.21ZM20.8,72.12c-1,1.25-1,2.79.06,3.63,1.03.82,2.54.49,3.57-.8.77-.97,1.24-2.6-.03-3.61-1.27-1.01-2.73-.31-3.59.78Z"/>
      <path d="M23.49,81.27c.57.26,1.13.37,1.58.22.53-.19.93-.63,1.76-2.17l2.92-5.38,1.21.66-3.16,5.83c-.68,1.25-1.32,1.95-2.23,2.21-.82.23-1.81-.04-2.46-.39l.37-.98ZM32.08,72.87c-.2.39-.66.57-1.14.31-.45-.25-.56-.73-.35-1.12.22-.41.71-.56,1.17-.31.44.24.56.71.33,1.12Z"/>
      <path d="M30.51,82.46l2.78-6.77,1.27.52-2.78,6.77-1.27-.52ZM35.49,74.38c-.16.42-.61.63-1.12.42-.45-.18-.63-.65-.46-1.07.18-.43.65-.63,1.11-.44.48.2.64.66.46,1.09Z"/>
      <path d="M39.15,75.5l-.55,2.03,1.9.51-.26.98-1.9-.51-1.03,3.81c-.24.88-.12,1.44.62,1.64.35.09.61.12.79.12l-.2.98c-.28.03-.71,0-1.22-.14-.62-.17-1.06-.49-1.29-.93-.27-.48-.24-1.15-.01-1.98l1.04-3.85-1.13-.31.26-.98,1.13.31.46-1.69,1.39.02Z"/>
      <path d="M48.72,82.58c-.22,2.7-2.25,3.71-4.07,3.56-2.04-.17-3.5-1.74-3.31-4.05.2-2.44,1.97-3.73,4.06-3.56,2.17.18,3.51,1.82,3.32,4.05ZM42.73,82.16c-.13,1.6.72,2.88,2.06,2.99,1.31.11,2.39-1,2.52-2.64.1-1.24-.41-2.85-2.03-2.99-1.62-.13-2.44,1.25-2.55,2.64Z"/>
    </g>
  </g>
</svg>